<?xml version="1.0" ?>
<!-- Uploaded to: SVG Repo, www.svgrepo.com, Generator: SVG Repo Mixer Tools -->
<svg width="800px" height="800px" viewBox="0 0 32 32" xmlns="http://www.w3.org/2000/svg">
<defs>
<style>.cls-1{fill:none;}.cls-2{fill:#bdeeff;}.cls-3{fill:#02a0e1;}</style>
</defs>
<title/>
<g id="statistic">
<rect class="cls-1" height="32" id="wrapper" width="32"/>
<rect class="cls-2" height="13.63" rx="1" ry="1" width="4.95" x="22.34" y="13.05"/>
<path class="cls-3" d="M26.29,27.68H23.34a2,2,0,0,1-2-2V14.05a2,2,0,0,1,2-2h2.95a2,2,0,0,1,2,2V25.68A2,2,0,0,1,26.29,27.68Zm0-2v0ZM23.34,14.05V25.68h2.94V14.05Z"/>
<rect class="cls-2" height="6.82" rx="1" ry="1" width="4.95" x="4.81" y="19.87"/>
<path class="cls-3" d="M8.77,27.68h-3a2,2,0,0,1-2-2V20.87a2,2,0,0,1,2-2h3a2,2,0,0,1,2,2v4.81A2,2,0,0,1,8.77,27.68Zm0-2v0Zm-3-4.81v4.81h3V20.87Z"/>
<path class="cls-3" d="M17.48,27.68h-3a2,2,0,0,1-2-2V6.32a2,2,0,0,1,2-2h3a2,2,0,0,1,2,2V25.68A2,2,0,0,1,17.48,27.68Zm0-2v0Zm-3-19.36V25.68h2.95V6.32Z"/>
<path class="cls-3" d="M29.94,27.68H2.06a1,1,0,1,1,0-2H29.94a1,1,0,1,1,0,2Z"/>
</g>
</svg>